<svg width="350" height="92" viewBox="0 0 350 92" fill="none" xmlns="http://www.w3.org/2000/svg">
<path d="M205.919 74.5975C210.158 73.9444 215.818 73.4746 220.086 73.1734C221.435 73.077 220.82 73.5934 221.751 73.5439C223.56 73.4467 225.214 72.9829 227.011 72.893C227.606 72.8651 226.986 73.6458 227.608 73.6009C231.03 73.3458 234.203 72.6106 237.605 72.0952C254.314 69.4176 271.229 65.6101 285.237 57.3334C289.679 54.7099 294.825 50.3129 294.354 46.5424C294.353 46.5314 294.352 46.5208 294.35 46.5107C294.287 46.1284 293.729 46.3862 293.681 46.3112C292.846 45.2641 294.062 45.5075 294.007 44.6133C293.683 40.9392 289.215 36.8476 285.007 34.5571C283.234 33.5866 284.383 35.643 282.94 34.0295C282.835 33.9176 283.611 33.6415 283.142 33.2954C282.066 32.494 279.83 31.4687 278.915 30.9825C277.221 30.0665 276.834 29.9024 275.155 29.1698C272.804 28.1465 270.023 26.7511 267.342 25.9763C266.774 25.8147 267.303 26.6747 266.379 26.4737C265.454 26.2679 263.061 25.4361 262.316 25.0517C261.554 24.6575 262.044 24.2815 261.935 24.1268C261.015 22.8169 257.83 23.3068 257.465 23.2445C250.72 21.9593 245.149 19.9074 238.774 18.6453C233.983 17.7021 228.681 17.0562 224.105 16.3329C218.58 15.4588 213.955 14.5133 208.518 13.9662C207.952 13.9093 208.532 14.7324 207.841 14.6648C200.422 13.9414 193.117 13.247 185.743 12.28C185.005 12.1827 186.002 11.58 185.265 11.4435C180.738 10.6098 173.57 8.99582 170.778 11.8007C167.679 11.5845 163.982 11.3828 161.21 10.7609C159.426 10.3615 161.168 9.66213 158.983 9.94369C158.491 10.007 159.123 10.6458 158.386 10.6933C156.609 10.8079 154.731 10.7876 152.865 10.8155C151.469 10.8363 150.089 10.884 148.773 11.0335C148.148 11.1062 148.324 11.6714 148.148 11.7748C146.674 12.6118 144.183 11.282 143.632 11.1931C139.496 10.5249 136.487 10.8994 132.655 11.0212C131.769 11.05 132.845 11.7707 131.994 11.826C127.55 12.1054 122.967 12.2755 118.603 12.2196C117.638 12.2053 118.479 11.501 118.015 11.4613C115.982 11.2955 115.583 12.5507 113.618 12.4307C113.202 12.4075 113.392 11.8369 113.313 11.7818C112.064 10.9165 111.154 12.3491 110.858 12.403C107.061 13.1225 104.537 11.9325 100.835 12.5086C100.396 12.5793 101.463 13.175 100.226 13.3313C92.0039 14.3768 83.3102 15.3351 75.1324 16.1546C73.8611 16.2836 74.6691 15.6109 74.5793 15.5602C73.1155 14.78 72.525 16.2682 72.1315 16.3904C68.9277 17.3369 65.7593 16.7993 63.8697 18.8483C50.1888 21.1816 37.1408 25.5517 24.4237 30.2991C24.2614 30.3634 24.2335 29.6242 23.9096 29.7562C20.0919 31.3653 21.2349 31.9587 19.6799 34.4321C19.2817 35.0573 16.8069 34.9324 16.5561 34.9944C15.7661 35.0734 15.7213 33.8538 15.4905 33.9285C13.5957 34.6238 15.8722 36.9693 14.2307 38.5378C14.1756 38.5847 13.9618 37.9418 13.7822 38.0349C13.2365 38.3087 12.9522 38.9668 12.421 39.2715C11.255 39.946 9.45737 39.5441 9.2683 41.9559C9.2922 42.2494 11.0136 42.708 10.3914 44.3387C10.2763 44.6659 10.0578 45.5722 10.0545 46.5107C10.0331 47.4596 10.239 48.4261 10.3142 48.8685C10.4767 49.7583 9.7178 49.3752 9.70921 49.4375C9.9664 52.176 9.35422 51.458 9.08755 53.3482C9.01838 55.3419 11.0818 53.3518 11.654 53.5915C12.2037 53.8319 13.1862 55.8386 13.4359 56.3534C13.6741 56.8882 12.9167 56.7074 13.1872 57.1341C15.1086 59.9308 15.1502 56.9896 16.2214 57.2986C18.7442 57.9279 19.1477 60.6478 21.0455 61.9884C21.5641 62.3485 21.3522 61.683 21.8618 61.9201C23.8009 62.8049 24.7611 64.0222 27.2154 64.5096C27.6293 64.5988 29.9695 64.2781 30.7841 65.6048C30.9041 65.7975 30.217 66.075 31.0397 66.5399C32.3125 67.256 34.5523 68.2361 36.0778 68.5953C37.1867 68.8548 36.2711 67.6245 37.4763 68.3306C38.0144 68.6434 36.7767 68.7422 37.8078 69.2913C38.8308 69.8437 41.7096 70.7566 42.7757 71.0599C43.8633 71.3752 43.4599 70.5736 43.5599 70.5588C44.1593 70.4841 46.3506 70.8029 46.5134 70.8475C55.7417 73.4041 64.3129 76.3438 73.6441 77.6074C74.3748 77.706 74.0072 76.9492 74.1199 76.9573C76.6604 77.0999 74.3853 78.5565 76.0452 79.4505C76.0078 78.0387 77.0458 78.4686 78.7983 78.5919C79.6535 78.6512 79.2772 78.0486 79.3626 78.0065C80.7376 77.3967 81.4589 78.569 81.6551 78.8164C82.3751 79.7257 83.4441 78.9355 83.929 79.5401C84.4186 80.141 83.0069 80.7272 84.6942 80.9569C85.236 80.5322 84.1672 79.0724 85.4741 79.0439C90.4681 78.965 99.3505 81.0036 103.322 81.4715C107.195 81.9467 108.523 81.96 110.776 82.3244C114.869 82.9699 113.435 81.8922 116.041 81.638C118.641 81.3746 117.231 83.6498 117.568 84.1829C117.897 84.7144 118.327 84.2178 118.762 84.5257C119.195 84.8333 118.195 85.1166 119.251 85.2886C120.306 85.4623 123.292 84.7267 123.697 84.2138C124.549 83.1298 123.308 81.883 126.08 82.4404C126.24 82.473 125.686 83.0688 126.3 83.1621C131.206 83.8836 136.323 84.0909 141.217 84.6171C141.892 84.6904 141.273 85.3702 141.666 85.4205C145.77 85.939 144.342 84.7435 146.587 83.4764C146.066 85.1948 147.285 86.2728 150.414 86.2984C152.105 86.3108 152.019 85.7021 152.865 85.1942C152.96 85.1396 153.066 85.0867 153.188 85.0366C153.543 84.8889 154.831 85.4495 155.084 85.1027C155.918 83.9692 154.677 82.6355 157.926 83.2494C158.07 83.2781 157.591 83.8988 158.09 83.9516C161.162 84.2893 161.628 83.0892 165.016 83.0185C167.65 82.9628 172.374 83.7831 175.437 83.9381C175.372 85.8785 178.207 85.466 179.384 84.1372C181.355 84.2091 183.508 84.1463 185.385 84.3377C186.038 84.403 185.607 84.9633 185.69 85.0243C186.952 85.9807 187.82 84.6801 188.248 84.6295C192.842 84.1377 196.629 85.1071 201 84.1019C201.157 84.0656 201.395 82.7158 202.588 83.6872C202.666 83.7541 201.209 84.3835 203.294 84.4078C205.345 84.4328 209.274 85.0986 212.131 84.4177C212.82 84.2543 214.549 83.1251 215.982 83.9475C216.173 84.0593 215.976 84.4504 216.253 84.6593C217.147 85.3243 217.602 83.9509 218.658 85.0823C219.713 86.2135 221.881 87.0257 224.768 86.1385C224.859 86.1124 225.519 85.012 226.425 84.9998C227.877 84.9815 229.949 85.1349 231.47 85.0709C232.198 85.04 231.707 84.3873 231.833 84.3704C236.705 83.8084 240.206 84.2542 245.455 84.2436C246.418 84.2433 249.121 83.1813 251.022 83.7928C253.107 84.4601 251.212 87.8789 255.857 86.8005C257.748 86.3638 259.853 82.0393 263.39 83.9452C269.96 82.914 276.094 83.4853 282.646 82.0192C282.939 81.954 283.743 80.6951 284.431 80.6348C285.469 80.5459 286.106 81.0215 286.85 80.972C289.96 80.7777 292.717 79.9629 295.699 79.6306C296.823 79.5031 296.51 80.1157 297.844 79.9599C299.186 79.8002 300.006 78.9324 301.869 79.0104C303.283 79.0691 304.846 80.3577 306.749 80.218C306.57 78.7307 307.849 78.5529 309.964 77.7705C310.369 77.6192 309.827 77.1884 310.014 77.0905C310.754 76.6836 311.624 76.9604 312.348 76.5249C312.525 76.4197 312.438 75.9164 312.576 75.8021C313.752 74.8129 316.087 75.5068 316.488 75.6251C318.08 76.0661 318.615 75.2674 319.758 75.3167C320.901 75.3634 319.374 76.0951 320.672 75.9845C323.329 75.7628 326.704 74.8211 329.37 74.0653C330.433 73.7608 329.516 73.3188 329.664 73.26C331.749 72.4696 334.176 72.4259 334.897 70.7273C337.534 73.5015 336.037 69.9956 339.268 69.4355C339.515 69.3924 340.474 70.793 339.652 71.3994C338.826 72.006 337.178 72.0889 336.067 72.8879C335.809 73.0801 334.523 75.1665 334.286 75.3391C332.555 76.68 331.599 74.3619 331.451 74.2683C329.927 73.2046 328.143 75.4547 327.625 75.7118C325.2 76.9256 322.74 77.1647 320.668 78.0254C319.27 78.5924 319.468 80.2111 318.281 80.4154C314.451 81.0521 312.598 79.0931 309.406 81.6614C308.703 82.2083 309.79 83.8308 306.741 82.9283C306.538 82.8741 304.269 81.9511 303.216 82.9308C303.082 83.0547 303.166 83.5655 302.975 83.6391C301.692 84.1213 300.739 83.8469 299.297 84.2545C297.877 84.6587 296.2 85.1875 294.508 85.2326C293.495 85.2602 292.057 84.47 291.571 84.2923C290.159 83.7833 288.852 85.0625 287.919 84.3418C286.981 83.6171 288.481 82.1789 286.214 81.9009C286.285 83.2466 286.252 84.6397 286.271 85.9988C281.433 86.4975 276.621 86.5339 271.755 87.0166C271.15 87.0778 271.833 87.7446 271.184 87.8286C268.475 88.1758 266.054 87.8522 263.228 88.268C261.061 88.5908 258.711 89.5216 256.42 89.8633C254.921 88.4196 251.567 89.1504 249.082 89.1469C248.212 89.1467 248.249 88.7328 247.627 88.6325C245.285 88.2615 246.442 89.5611 245.817 89.8085C243.133 90.8609 242.745 87.799 239.539 88.0232C239.369 88.0344 237.36 89.7656 237.076 89.8794C235.281 90.6221 236.75 89.3218 235.605 89.2481C233.516 89.1118 232.051 88.7766 229.626 89.3436C228.919 89.5111 227.244 90.5917 225.839 89.8442C225.653 89.7464 225.737 89.2011 225.589 89.174C222.915 88.7268 222.897 90.4304 221.396 91.0498C219.896 91.6688 217.53 90.5498 217.039 90.2217C215.768 89.3739 217.989 89.8245 218.055 89.7363C218.827 88.6927 217.115 88.9117 215.808 88.854C215.58 87.188 213.763 87.3271 214.454 88.8004C214.532 88.9614 215.544 88.7837 215.808 88.854C214.696 90.5189 212.7 90.7713 210.462 89.2783C209.409 88.5779 210.372 87.7267 207.23 88.0817C205.807 88.2406 206.373 89.3833 205.122 89.7138C202.258 90.4678 198.492 89.4286 195.532 89.6116C194.446 89.6781 195.506 90.303 194.765 90.37C192.795 90.5493 191.093 90.0801 189.133 90.3216C188.953 90.3442 189.393 91.0038 188.775 91.0118C184.119 91.0842 180.085 90.6376 175.274 90.5684C172.897 90.5358 168.765 90.8333 166.317 90.7087C162.174 90.504 156.951 89.4025 153.414 89.5127C153.143 89.5212 152.912 89.5381 152.713 89.562L152.865 89.5647C151.333 89.7929 151.628 90.3518 150.737 90.7451C148.777 91.6117 145.373 90.0123 144.911 89.7621C144.904 89.7548 146.911 89.6243 145.844 89.2726C145.234 88.5595 144.934 89.7593 144.911 89.7621C144.604 89.6052 140.567 89.3823 139.771 89.4855C139.336 89.5441 139.563 90.1745 139.337 90.1931C133.923 90.621 128.478 90.5679 123.046 89.978C122.95 89.9601 123.134 89.2703 122.907 89.2368C119.731 88.7488 117.691 89.4734 115.027 89.7961C112.358 90.1162 110.312 89.7817 108.872 88.458C106.869 88.4446 104.098 87.6597 102.528 87.1823C100.928 86.7028 100.564 88.0308 100.418 88.0434C95.8784 88.4415 93.3469 87.3704 88.7862 86.6675C86.5579 86.3254 82.243 85.9226 79.8112 85.6972C77.9081 85.5275 76.8805 85.041 75.0853 84.9516C74.8455 84.9394 74.9842 85.5764 74.9086 85.5875C72.8476 85.9777 74.0279 84.673 73.673 84.3452C72.3811 83.148 71.6544 82.5063 69.0729 82.492C68.4859 82.4897 66.4356 84.2727 65.3842 84.1927C64.0249 84.086 64.6693 83.4357 63.2117 83.3298C63.0874 83.3198 63.0167 83.7876 62.1461 83.5866C58.1633 82.6713 53.7964 81.3916 49.6072 80.3514C49.0419 80.209 49.5766 81.1215 48.7565 80.9266C44.8227 79.9877 40.6115 78.727 36.9649 77.1426C36.0651 76.7487 36.8137 76.4466 36.6624 76.232C35.7377 74.9315 33.6113 75.6251 33.2826 75.532C26.1872 73.5948 21.5239 70.3446 14.546 66.634C14.1708 66.4586 10.467 65.6803 10.032 63.6493C10.0083 63.523 9.64164 61.5572 8.04597 61.219C7.94518 61.1924 8.19273 62.3791 7.00196 61.0939C5.76772 59.7543 3.40033 57.6343 2.7388 54.6739C2.52616 53.7025 2.79608 51.4745 1.38672 48.8625C1.34404 48.7821 0.65849 47.832 0.275043 46.5107C-0.183163 45.0373 -0.130228 43.0979 0.903905 42.4746C1.26791 42.2939 2.62923 42.8766 2.98997 39.6572C3.09027 39.0375 2.26101 39.894 2.75978 38.3212C3.57715 35.8747 5.7739 33.7522 7.13094 31.3671C7.30832 30.985 8.09966 28.6724 9.77674 28.4564C10.0437 28.4173 10.0528 29.1286 10.7009 28.6954C13.7906 26.6539 16.7357 24.449 19.9707 23.1934C21.1194 22.7534 20.9759 23.8481 22.2242 23.4966C23.432 23.162 25.7941 22.3327 26.8073 21.4507C27.8114 20.57 25.947 19.7785 27.6989 18.9213C35.4447 15.2026 43.5087 13.6893 51.4897 11.8084C52.6827 11.5315 51.567 11.2695 53.3316 10.8297C59.7351 9.18981 70.7659 6.58344 76.5748 6.80859C81.1557 6.97979 75.6685 8.52424 79.1184 8.34827C80.7801 8.26425 82.348 6.33094 82.7393 6.22135C86.5227 5.13437 89.3874 5.51878 92.8521 4.87383C93.5753 4.74042 92.7797 4.1454 93.3976 4.03957C95.5337 3.66971 97.7428 3.73544 99.7732 3.47115C100.682 3.35171 100.461 2.84889 101.308 2.8051C103.326 2.6964 105.086 2.75399 107.09 3.07127C107.272 3.10033 106.127 3.85186 107.613 3.74761C110.033 3.57674 112.98 3.83055 115.728 3.14117C116.54 2.93539 116.481 1.74056 118.287 2.45028C118.666 2.59931 118.283 4.05757 120.251 2.69628C120.578 2.46804 123.949 0.601481 125.678 1.59775C126.137 1.85867 127.326 2.97588 128.302 2.74793C128.435 2.71261 127.87 2.09557 128.685 1.99687C131.571 1.66052 134.537 1.62269 137.512 1.33988C138.302 1.26353 137.111 0.631506 138.279 0.539739C141.484 0.286174 145.566 0.388 148.708 0.574712C149.874 0.64456 149.072 1.19988 149.158 1.2591C150.525 2.22351 151.328 0.90859 151.783 0.830978C152.154 0.77004 152.514 0.728036 152.865 0.700705C155.188 0.520443 157.101 0.978822 159.345 0.86226C160.058 0.827277 159.561 0.195016 159.703 0.140855C161.182 -0.385941 160.069 0.724384 161.006 0.861371C163.643 1.25022 166.532 1.26275 169.197 1.26123C170.175 1.26002 169.098 0.501122 169.976 0.508883C175.156 0.541819 180.524 0.85448 185.565 1.55979C186.511 1.69399 185.879 2.21594 186.069 2.35547C187.378 3.3299 189.432 2.24567 189.904 2.16242C192.049 1.78002 192.827 2.33428 194.674 2.3852C203.737 2.6172 214.829 4.15952 223.274 5.60422C234.331 7.49394 242.734 9.58502 253.196 11.98C253.868 12.1375 253.37 11.2482 253.952 11.3754C261.399 13.0492 268.584 15.4663 275.933 18.0979C276.532 18.3159 275.911 17.3128 276.92 17.6582C278.985 18.3603 281.464 19.4697 283.359 20.6255C284.264 21.1793 282.731 21.1143 283.639 21.659C285.831 22.9734 288.203 24.3046 290.491 25.6036C291.502 26.1834 290.386 24.6195 291.694 25.4448C297.406 29.3533 305.584 34.7624 305.85 46.5107C305.752 50.9808 303.787 54.9542 301.495 57.6847C300.913 58.3789 299.376 58.0153 298.478 59.4339C298.693 59.8019 299.049 60.1213 299.33 60.4584C287.63 72.1271 274.347 75.1623 261.403 79.1443C260.861 79.2959 262.012 79.7756 260.959 80.0729C254.802 81.7992 248.817 83.427 242.321 83.9577C241.676 84.01 241.728 82.6099 239.913 83.1766C239.604 83.2785 236.862 83.9841 236.18 84.4064C236.089 84.4684 236.719 85.0023 235.812 85.1859C230.606 86.2267 225.083 86.9406 219.785 87.265C218.935 87.3152 219.74 86.5211 219.134 86.5507C214.8 86.7705 210.251 87.8235 206.093 87.6316C203.314 87.4973 204.22 86.2241 202.664 85.2151C202.446 85.0731 200.759 85.2056 200.61 84.5434C200.233 82.8801 200.874 80.9615 200.375 79.1976C200.271 78.8186 198.071 79.4365 199.311 78.3829C199.399 78.3126 200.986 77.8537 201.349 77.4986C201.604 77.2534 201.044 76.6198 201.577 76.286C202.109 75.9522 202.779 76.4633 203.668 76.0415C204.556 75.6144 204.079 74.8834 205.919 74.5975ZM95.3924 84.9849C93.9615 84.1635 93.4611 86.514 95.1609 86.1331C95.2436 86.1118 95.4667 85.0256 95.3924 84.9849ZM276.468 84.7164C274.429 83.8496 273.228 85.5138 274.682 86.2003C276.139 86.8844 277.091 84.9782 276.468 84.7164ZM296.595 81.6282C294.223 81.1114 294.305 84.5229 296.655 83.5126C296.791 83.4547 296.733 81.6578 296.595 81.6282ZM209.309 84.1945C209.286 84.1656 208.081 84.2669 208.055 84.301C207.496 85.1269 209.91 84.9236 209.309 84.1945ZM316.343 77.4389C315.568 77.1334 313.659 78.0522 314.639 78.4394C315.437 78.7516 317.318 77.8198 316.343 77.4389ZM20.5178 63.0322C20.5122 62.9896 19.7757 62.5216 19.6896 62.7033C19.4036 63.292 20.5672 63.7535 20.5178 63.0322ZM348.643 65.8548C344.196 68.6763 340.294 67.2711 345.073 65.0607C345.954 64.613 343.679 66.8989 344.9 66.4889C347.166 65.7068 347.418 63.4287 349.634 62.7499C350.11 62.5974 348.992 65.6727 348.637 65.8635C348.639 65.8606 348.641 65.8577 348.643 65.8548ZM94.8549 82.0305C94.8279 81.9959 93.6353 81.826 93.6037 81.8534C92.8654 82.5317 95.2719 82.8753 94.8549 82.0305ZM26.9684 28.3323C27.042 28.3614 29.6222 27.2827 29.6572 27.2106C30.5019 25.4763 25.2833 27.6482 26.9684 28.3323ZM175.484 83.9904C176.833 83.2425 178.334 83.1676 179.378 84.1362C178.071 84.0739 176.823 84.0535 175.484 83.9904Z" fill="#79E7FF"/>
</svg>
