<svg width="149" height="37" viewBox="0 0 149 37" fill="none" xmlns="http://www.w3.org/2000/svg">
<path d="M137.703 8.31887L137.796 10.9797L137.895 10.9763C139.017 9.19393 140.416 7.82946 142.19 7.76751C144.555 7.68492 145.471 9.42899 145.563 12.057L145.922 22.339C145.993 24.3757 146.238 24.7948 148.176 24.7271L148.2 25.4169L142.123 25.6291L142.099 24.9393C143.972 24.8739 144.187 24.4388 144.115 22.4021L143.756 12.1201C143.689 10.1819 143.03 9.21823 141.683 9.26526C140.271 9.31459 138.935 10.6111 137.835 12.0966L138.202 22.6086C138.274 24.6453 138.518 25.0643 140.358 25.0001L140.382 25.6899L134.338 25.901L134.314 25.2112C136.219 25.1446 136.434 24.7096 136.363 22.6729L135.983 11.7995C135.912 9.76281 135.965 9.39917 134.252 10.2484L133.934 9.63454L137.295 7.93844L137.703 8.31887Z" fill="black"/>
<path d="M131.862 18.9819L132.552 18.9578C132.206 24.1336 130.158 26.7048 127.596 26.7942C124.147 26.9147 122.143 23.2352 121.953 17.7821C121.776 12.7232 123.665 8.41441 127.246 8.28937C130.301 8.18269 132.223 11.4374 132.394 16.3321L123.853 16.6303L123.879 17.353C124.027 21.5907 125.566 25.1877 127.997 25.1028C129.607 25.0466 131.197 23.4782 131.862 18.9819ZM127.186 9.40971C125.084 9.48313 124.061 12.2158 123.88 15.5112L130.417 15.2829C130.313 12.2935 129.42 9.33171 127.186 9.40971Z" fill="black"/>
<path d="M114.605 8.73082C117.824 8.6184 119.208 12.4511 119.361 16.8202C119.549 22.2076 117.78 27.137 114.298 27.2586C112.689 27.3148 111.246 26.5101 110.268 24.8668L110.202 24.8691L110.41 30.815C110.482 32.8845 110.726 33.2707 112.631 33.2042L112.655 33.894L106.545 34.1074L106.521 33.4175C108.426 33.351 108.675 32.9476 108.603 30.8781L107.971 12.7777C107.9 10.741 107.953 10.3774 106.24 11.2266L105.922 10.6128L109.283 8.91666L109.659 9.29824L109.777 12.6818L109.908 12.6772C111.141 10.299 112.601 8.8008 114.605 8.73082ZM114.062 26.1486C116.822 26.0523 117.493 21.7202 117.357 17.8439C117.193 13.1464 116.367 10.2151 114.002 10.2977C112.162 10.362 110.68 12.1898 109.813 13.733L110.049 20.4672C110.177 24.1464 111.894 26.2243 114.062 26.1486Z" fill="black"/>
<path d="M95.1027 27.9289C89.0911 28.1389 85.2937 22.0553 85.0287 14.4669C84.7637 6.87857 88.1275 0.544883 94.1391 0.334955C100.183 0.12388 103.948 6.20863 104.213 13.797C104.478 21.3853 101.147 27.7179 95.1027 27.9289ZM96.1806 26.773C100.699 26.1877 102.841 20.6531 101.923 13.2191C101.007 5.81798 97.5796 0.905502 93.06 1.45801C88.5416 2.04336 86.368 7.6119 87.2854 15.0459C88.2017 22.4471 91.6282 27.3267 96.1806 26.773Z" fill="black"/>
<path d="M69.8157 28.812C65.7094 28.9554 63.168 24.9328 62.989 19.8083C62.8089 14.6508 65.0636 10.4608 69.1698 10.3174C73.2432 10.1752 75.7847 14.1977 75.9648 19.3551C76.1437 24.4797 73.8891 28.6697 69.8157 28.812ZM70.4654 27.6381C73.1839 27.313 74.4829 24.0115 73.8814 19.0332C73.28 14.0549 71.2058 11.1672 68.4873 11.4924C65.7699 11.8504 64.4698 15.119 65.0723 20.1302C65.7066 25.1073 67.748 27.9961 70.4654 27.6381Z" fill="black"/>
<path d="M60.4004 21.2471L61.0903 21.2231C61.2364 26.3488 60.7415 29.1288 57.9492 29.2264C55.7154 29.3044 54.412 27.7712 54.2606 23.435L53.8832 12.6273L51.1567 12.7225L51.1177 11.6056C53.9416 11.4741 54.7204 10.23 54.6985 6.77731L55.4869 6.74977L55.651 11.4473L59.6258 11.3085L59.6648 12.4254L55.69 12.5642L56.0249 22.1564C56.1454 25.6057 56.3525 27.7692 58.3235 27.7003C59.9003 27.6453 60.5362 26.0772 60.4004 21.2471Z" fill="black"/>
<path d="M38.319 11.3948C41.5383 11.2823 42.9219 15.1151 43.0745 19.4841C43.2626 24.8715 41.4943 29.801 38.0122 29.9226C36.4025 29.9788 34.9602 29.174 33.9818 27.5308L33.9161 27.5331L34.1238 33.4789C34.1961 35.5485 34.4398 35.9346 36.3451 35.8681L36.3692 36.558L30.2591 36.7713L30.235 36.0815C32.1403 36.0149 32.3893 35.6116 32.317 33.542L31.685 15.4417C31.6138 13.405 31.6669 13.0413 29.9534 13.8905L29.636 13.2767L32.9973 11.5806L33.3724 11.9622L33.4906 15.3457L33.622 15.3411C34.8545 12.9629 36.3151 11.4647 38.319 11.3948ZM37.7761 28.8126C40.5355 28.7162 41.2064 24.3842 41.0711 20.5079C40.907 15.8103 40.0811 12.8791 37.7159 12.9617C35.8763 13.0259 34.3943 14.8537 33.5273 16.3969L33.7624 23.1312C33.8909 26.8104 35.608 28.8883 37.7761 28.8126Z" fill="black"/>
<path d="M29.0595 27.4395L29.7493 27.4155C29.3773 29.0072 29.0256 30.2364 27.5145 30.2892C25.9377 30.3442 25.4682 29.1437 25.412 27.534L25.3902 26.9099L25.3245 26.9122C24.8004 27.9172 23.5068 30.4291 20.8459 30.522C18.5464 30.6023 17.3722 28.9988 17.2884 26.6008C17.1439 22.4617 20.4464 20.965 23.6106 19.2758L25.0965 18.5003L25.0392 16.8578C24.9611 14.624 24.6681 12.8253 22.1387 12.9136C20.6933 12.9641 19.5676 13.6941 19.6043 14.7453C19.6307 15.5008 20.272 15.9718 20.2984 16.7273C20.3191 17.3186 19.8729 17.7289 19.1502 17.7541C18.329 17.7828 17.811 17.0773 17.764 15.7305C17.6871 13.5295 19.5759 12.0493 22.2696 11.9552C24.9633 11.8612 26.7549 13.2458 26.8822 16.8921L27.255 27.5683C27.2929 28.6524 27.3769 29.1757 27.9682 29.155C28.461 29.1378 28.6737 28.6371 29.0595 27.4395ZM21.5113 28.8543C22.9895 28.8027 23.9441 27.8813 25.3535 25.8587L25.1332 19.5515L23.6802 20.3258C21.0335 21.7667 19.0859 23.4463 19.18 26.14C19.2442 27.9796 20.0987 28.9036 21.5113 28.8543Z" fill="black"/>
<path d="M17.6962 4.31999L18.3385 9.52707L17.651 9.61686C17.1042 5.26158 16.5954 4.81889 14.5915 4.88886L10.1239 5.04488L10.8925 27.0544C10.9625 29.0582 11.2742 29.5078 14.395 29.3988L14.4191 30.0887L5.54956 30.3984L5.52547 29.7085C8.67907 29.5984 8.95866 29.1282 8.88869 27.1243L8.1201 5.11485L3.61965 5.27201C1.6158 5.34199 1.17196 5.81795 0.897483 10.2019L0.205339 10.1603L0.515693 4.91994L0.55845 4.26065L17.6076 3.66528L17.6962 4.31999Z" fill="black"/>
</svg>
